<svg width="233" height="333" viewBox="0 0 233 333" fill="none" xmlns="http://www.w3.org/2000/svg">
<g clip-path="url(#clip0_4_23)">
<path d="M223.743 0.37793H9.25741C4.35253 0.37793 0.376343 4.38307 0.376343 9.32367V323.676C0.376343 328.617 4.35253 332.622 9.25741 332.622H223.743C228.647 332.622 232.624 328.617 232.624 323.676V9.32367C232.624 4.38307 228.647 0.37793 223.743 0.37793Z" fill="white" stroke="#808080" stroke-width="0.755906"/>
<path d="M12.8437 61.3399C12.8437 60.7839 12.813 60.3822 12.813 59.8261C13.9577 59.8261 15.1979 59.8261 16.3426 59.8261C16.3426 58.5043 16.3426 58.4108 16.3426 57.089C14.1083 57.1613 11.6901 57.328 9.59764 56.402C7.97797 55.5093 7.53106 53.4311 7.85761 51.7227C8.13712 49.7951 9.20411 48.0834 10.5961 46.765C12.4074 44.8192 14.7174 43.5057 17.1292 42.4489C19.591 43.5236 21.9519 44.8801 23.7862 46.8772C25.4384 48.4365 26.5393 50.6404 26.5055 52.9478C26.5413 54.6133 25.514 56.3733 23.8196 56.7367C21.924 57.2639 20.0055 57.1703 18.0596 57.089C18.0596 58.4108 18.0596 58.5043 18.0596 59.8261C19.2042 59.8261 20.2533 59.8261 21.3979 59.8261C21.3979 60.3822 21.4286 60.7839 21.4286 61.3399C18.8076 61.3213 15.6747 61.3213 12.8437 61.3399H12.8437Z" fill="black"/>
<path d="M211.58 271.66C211.58 272.216 211.549 272.618 211.549 273.174C212.694 273.174 213.934 273.174 215.078 273.174C215.078 274.496 215.078 274.589 215.078 275.911C212.844 275.839 210.426 275.672 208.333 276.598C206.714 277.491 206.267 279.569 206.593 281.277C206.873 283.205 207.94 284.917 209.332 286.235C211.143 288.181 213.453 289.494 215.865 290.551C218.327 289.476 220.688 288.12 222.522 286.123C224.174 284.563 225.275 282.36 225.241 280.052C225.277 278.387 224.25 276.627 222.555 276.263C220.66 275.736 218.741 275.83 216.795 275.911C216.795 274.589 216.795 274.496 216.795 273.174C217.94 273.174 218.989 273.174 220.134 273.174C220.134 272.618 220.164 272.216 220.164 271.66C217.543 271.679 214.41 271.679 211.579 271.66H211.58Z" fill="black"/>
<path d="M103.635 94.7141C103.635 93.0459 103.543 91.841 103.543 90.1728C106.977 90.1728 110.698 90.1728 114.132 90.1728C114.132 86.2073 114.132 85.9269 114.132 81.9614C107.429 82.1783 100.174 82.6783 93.8968 79.9005C89.0378 77.2222 87.6971 70.9878 88.6767 65.8624C89.5152 60.0798 92.7162 54.9446 96.892 50.9895C102.326 45.1522 109.256 41.2116 116.491 38.041C123.877 41.2652 130.96 45.3348 136.463 51.326C141.419 56.0039 144.722 62.6154 144.62 69.5377C144.728 74.5342 141.646 79.8142 136.563 80.9045C130.876 82.486 125.12 82.2054 119.283 81.9614C119.283 85.9269 119.283 86.2073 119.283 90.1728C122.717 90.1728 125.864 90.1728 129.298 90.1728C129.298 91.841 129.39 93.0459 129.39 94.7141C121.527 94.6585 112.128 94.6585 103.635 94.7141H103.635Z" fill="black"/>
<path d="M103.635 238.286C103.635 239.954 103.543 241.159 103.543 242.827C106.977 242.827 110.698 242.827 114.132 242.827C114.132 246.793 114.132 247.073 114.132 251.039C107.429 250.822 100.174 250.322 93.8968 253.1C89.0378 255.778 87.6971 262.012 88.6767 267.138C89.5152 272.92 92.7162 278.055 96.892 282.01C102.326 287.848 109.256 291.788 116.491 294.959C123.877 291.735 130.96 287.665 136.463 281.674C141.419 276.996 144.722 270.385 144.62 263.462C144.728 258.466 141.646 253.186 136.563 252.096C130.876 250.514 125.12 250.795 119.283 251.039C119.283 247.073 119.283 246.793 119.283 242.827C122.717 242.827 125.864 242.827 129.298 242.827C129.298 241.159 129.39 239.954 129.39 238.286C121.527 238.341 112.128 238.341 103.635 238.286H103.635Z" fill="black"/>
<path d="M26.375 30.3946L25.6806 36.152H7.75769C8.03295 32.849 9.30913 29.9311 11.5862 27.3983L17.6669 21.9935C19.7814 20.0874 20.8386 18.1748 20.8386 16.2557C20.8386 14.9762 20.4883 13.9579 19.7876 13.2007C19.0995 12.4305 18.1486 12.0453 16.935 12.0453C15.5337 12.0453 14.4889 12.437 13.8008 13.2203C13.3504 13.7425 13.0063 14.5454 12.7686 15.629C12.5309 16.7779 12.3432 17.4437 12.2056 17.6265C12.0054 17.6918 11.7739 17.7244 11.5112 17.7244H9.14648C8.87123 17.7244 8.6335 17.6657 8.43332 17.5482C8.34574 17.274 8.30195 16.9672 8.30195 16.6278C8.30195 13.8992 9.15899 11.732 10.8731 10.1262C12.5121 8.58571 14.6453 7.81543 17.2728 7.81543C19.7125 7.81543 21.7082 8.49431 23.2596 9.85206C24.9111 11.2881 25.7369 13.2595 25.7369 15.7661C25.7369 18.2336 24.8235 20.4921 22.9969 22.5418C22.3588 23.2729 20.5446 24.833 17.5543 27.2222C15.3773 28.9846 14.0385 30.5709 13.5381 31.9808H22.2837L22.4338 30.2184C22.5715 29.5917 22.9405 29.2784 23.5411 29.2784H25.4179C26.1435 29.2784 26.4626 29.6505 26.375 30.3946V30.3946Z" fill="black"/>
<path d="M206.625 302.605L207.319 296.848H225.242C224.967 300.151 223.691 303.069 221.414 305.602L215.333 311.006C213.219 312.913 212.161 314.825 212.161 316.744C212.161 318.024 212.512 319.042 213.212 319.799C213.901 320.569 214.851 320.955 216.065 320.955C217.466 320.955 218.511 320.563 219.199 319.78C219.65 319.257 219.994 318.455 220.231 317.371C220.469 316.222 220.657 315.556 220.794 315.374C220.995 315.308 221.226 315.276 221.489 315.276H223.854C224.129 315.276 224.366 315.334 224.567 315.452C224.654 315.726 224.698 316.033 224.698 316.372C224.698 319.101 223.841 321.268 222.127 322.874C220.488 324.414 218.355 325.185 215.727 325.185C213.287 325.185 211.292 324.506 209.74 323.148C208.089 321.712 207.263 319.741 207.263 317.234C207.263 314.767 208.176 312.508 210.003 310.458C210.641 309.727 212.455 308.167 215.446 305.778C217.623 304.015 218.961 302.429 219.462 301.019H210.716L210.566 302.782C210.429 303.408 210.059 303.722 209.459 303.722H207.582C206.856 303.722 206.537 303.35 206.625 302.605V302.605Z" fill="black"/>
</g>
<defs>
<clipPath id="clip0_4_23">
<rect width="233" height="333" fill="white"/>
</clipPath>
</defs>
</svg>
